<svg width="55" height="55" viewBox="0 0 55 55" fill="none" xmlns="http://www.w3.org/2000/svg">
<g clip-path="url(#clip0_19415_172)">
<path d="M45.3063 16.5688L45.3293 16.5458L36.8042 8.02083L34.3751 10.45L39.2105 15.2854C37.0563 16.1104 35.5209 18.1729 35.5209 20.625C35.5209 23.7875 38.0876 26.3542 41.2501 26.3542C42.0751 26.3542 42.8313 26.1708 43.5417 25.8729V42.3958C43.5417 43.6562 42.5105 44.6875 41.2501 44.6875C39.9897 44.6875 38.9584 43.6562 38.9584 42.3958V32.0833C38.9584 29.5625 36.8959 27.5 34.3751 27.5H32.0834V11.4583C32.0834 8.9375 30.0209 6.875 27.5001 6.875H13.7501C11.2292 6.875 9.16675 8.9375 9.16675 11.4583V48.125H32.0834V30.9375H35.5209V42.3958C35.5209 45.5583 38.0876 48.125 41.2501 48.125C44.4126 48.125 46.9792 45.5583 46.9792 42.3958V20.625C46.9792 19.0438 46.3376 17.6 45.3063 16.5688ZM27.5001 22.9167H13.7501V11.4583H27.5001V22.9167ZM41.2501 22.9167C39.9897 22.9167 38.9584 21.8854 38.9584 20.625C38.9584 19.3646 39.9897 18.3333 41.2501 18.3333C42.5105 18.3333 43.5417 19.3646 43.5417 20.625C43.5417 21.8854 42.5105 22.9167 41.2501 22.9167Z" fill="#322153"/>
</g>
<defs>
<clipPath id="clip0_19415_172">
<rect width="55" height="55" fill="white"/>
</clipPath>
</defs>
</svg>
