<svg width="509" height="382" viewBox="0 0 509 382" fill="none" xmlns="http://www.w3.org/2000/svg">
<path d="M338.945 382L338.837 381.99L170.056 367.425L16.578 380.67C12.5708 381.016 8.57979 379.868 5.48303 377.481C2.38627 375.093 0.437407 371.66 0.0651695 367.937C0.0218442 367.504 0.000164251 367.069 0.000126605 366.633V27.5246C-0.0153647 24.0074 1.39127 20.613 3.94154 18.0135C6.49181 15.4139 9.99977 13.7988 13.7709 13.4879L170.056 0L170.164 0.00952574L338.945 14.5754L492.422 1.33009C496.429 0.984251 500.42 2.13146 503.517 4.51935C506.614 6.90724 508.563 10.3402 508.935 14.063C508.978 14.4964 509 14.931 509 15.3668V354.475C509.015 357.992 507.609 361.387 505.059 363.986C502.508 366.586 499 368.201 495.229 368.512L338.945 382Z" fill="#3F3D56"/>
</svg>
