<svg width="269" height="48" viewBox="0 0 269 48" fill="none" xmlns="http://www.w3.org/2000/svg">
<path d="M44.875 39V9.90909H52.7727V32.6364H64.5341V39H44.875ZM78.3516 39.3977C75.9841 39.3977 73.9576 38.929 72.272 37.9915C70.5864 37.0445 69.2938 35.7282 68.3942 34.0426C67.4946 32.3475 67.0447 30.3826 67.0447 28.1477C67.0447 25.9129 67.4946 23.9527 68.3942 22.267C69.2938 20.572 70.5864 19.2557 72.272 18.3182C73.9576 17.3712 75.9841 16.8977 78.3516 16.8977C80.719 16.8977 82.7455 17.3712 84.4311 18.3182C86.1167 19.2557 87.4093 20.572 88.3089 22.267C89.2086 23.9527 89.6584 25.9129 89.6584 28.1477C89.6584 30.3826 89.2086 32.3475 88.3089 34.0426C87.4093 35.7282 86.1167 37.0445 84.4311 37.9915C82.7455 38.929 80.719 39.3977 78.3516 39.3977ZM78.4084 33.6023C79.0713 33.6023 79.6442 33.3797 80.1271 32.9347C80.6101 32.4896 80.9841 31.8551 81.2493 31.0312C81.5144 30.2074 81.647 29.2273 81.647 28.0909C81.647 26.9451 81.5144 25.965 81.2493 25.1506C80.9841 24.3267 80.6101 23.6922 80.1271 23.2472C79.6442 22.8021 79.0713 22.5795 78.4084 22.5795C77.7076 22.5795 77.1063 22.8021 76.6044 23.2472C76.1025 23.6922 75.719 24.3267 75.4538 25.1506C75.1887 25.965 75.0561 26.9451 75.0561 28.0909C75.0561 29.2273 75.1887 30.2074 75.4538 31.0312C75.719 31.8551 76.1025 32.4896 76.6044 32.9347C77.1063 33.3797 77.7076 33.6023 78.4084 33.6023ZM103.352 39.3977C100.984 39.3977 98.9576 38.929 97.272 37.9915C95.5864 37.0445 94.2938 35.7282 93.3942 34.0426C92.4946 32.3475 92.0447 30.3826 92.0447 28.1477C92.0447 25.9129 92.4946 23.9527 93.3942 22.267C94.2938 20.572 95.5864 19.2557 97.272 18.3182C98.9576 17.3712 100.984 16.8977 103.352 16.8977C105.492 16.8977 107.343 17.286 108.906 18.0625C110.478 18.8295 111.694 19.9186 112.556 21.3295C113.418 22.7311 113.853 24.3788 113.863 26.2727H106.59C106.486 25.1269 106.155 24.2557 105.596 23.6591C105.047 23.053 104.336 22.75 103.465 22.75C102.783 22.75 102.187 22.9489 101.675 23.3466C101.164 23.7348 100.766 24.3267 100.482 25.1222C100.198 25.9081 100.056 26.8977 100.056 28.0909C100.056 29.2841 100.198 30.2784 100.482 31.0739C100.766 31.8598 101.164 32.4517 101.675 32.8494C102.187 33.2377 102.783 33.4318 103.465 33.4318C104.043 33.4318 104.554 33.2992 104.999 33.0341C105.444 32.7595 105.804 32.3617 106.079 31.8409C106.363 31.3106 106.533 30.6667 106.59 29.9091H113.863C113.835 31.8314 113.394 33.5076 112.542 34.9375C111.69 36.358 110.482 37.4564 108.92 38.233C107.367 39.0095 105.511 39.3977 103.352 39.3977ZM123.178 39.3409C121.786 39.3409 120.554 39.1136 119.484 38.6591C118.424 38.1951 117.59 37.4943 116.984 36.5568C116.378 35.6193 116.075 34.4261 116.075 32.9773C116.075 31.7841 116.279 30.7661 116.686 29.9233C117.093 29.071 117.661 28.375 118.391 27.8352C119.12 27.2955 119.967 26.8835 120.933 26.5994C121.909 26.3153 122.96 26.1307 124.087 26.0455C125.308 25.9508 126.288 25.8371 127.027 25.7045C127.775 25.5625 128.315 25.3684 128.646 25.1222C128.978 24.8665 129.143 24.5303 129.143 24.1136V24.0568C129.143 23.4886 128.926 23.053 128.49 22.75C128.054 22.447 127.496 22.2955 126.814 22.2955C126.066 22.2955 125.455 22.4612 124.982 22.7926C124.518 23.1146 124.238 23.6117 124.143 24.2841H116.928C117.022 22.9583 117.444 21.7367 118.192 20.6193C118.949 19.4924 120.053 18.5928 121.501 17.9205C122.95 17.2386 124.759 16.8977 126.928 16.8977C128.49 16.8977 129.892 17.0824 131.132 17.4517C132.373 17.8116 133.429 18.3182 134.3 18.9716C135.171 19.6155 135.834 20.3731 136.288 21.2443C136.752 22.1061 136.984 23.0436 136.984 24.0568V39H129.655V35.9318H129.484C129.049 36.7462 128.518 37.4044 127.893 37.9062C127.278 38.4081 126.572 38.7727 125.777 39C124.991 39.2273 124.125 39.3409 123.178 39.3409ZM125.734 34.3977C126.331 34.3977 126.89 34.2746 127.411 34.0284C127.941 33.7822 128.372 33.4271 128.703 32.9631C129.035 32.4991 129.2 31.9356 129.2 31.2727V29.4545C128.992 29.5398 128.769 29.6203 128.533 29.696C128.305 29.7718 128.059 29.8428 127.794 29.9091C127.538 29.9754 127.264 30.0369 126.97 30.0938C126.686 30.1506 126.388 30.2027 126.075 30.25C125.469 30.3447 124.972 30.5009 124.584 30.7188C124.205 30.9271 123.921 31.1875 123.732 31.5C123.552 31.803 123.462 32.1439 123.462 32.5227C123.462 33.1288 123.675 33.5928 124.101 33.9148C124.527 34.2367 125.071 34.3977 125.734 34.3977ZM148.572 9.90909V39H140.731V9.90909H148.572ZM160.422 9.90909H170.251L177.013 26.3864H177.354L184.115 9.90909H193.945V39H186.217V22.1818H185.99L179.513 38.7727H174.854L168.376 22.0682H168.149V39H160.422V9.90909ZM203.881 39.3409C202.489 39.3409 201.258 39.1136 200.188 38.6591C199.127 38.1951 198.294 37.4943 197.688 36.5568C197.081 35.6193 196.778 34.4261 196.778 32.9773C196.778 31.7841 196.982 30.7661 197.389 29.9233C197.796 29.071 198.365 28.375 199.094 27.8352C199.823 27.2955 200.67 26.8835 201.636 26.5994C202.612 26.3153 203.663 26.1307 204.79 26.0455C206.011 25.9508 206.991 25.8371 207.73 25.7045C208.478 25.5625 209.018 25.3684 209.349 25.1222C209.681 24.8665 209.847 24.5303 209.847 24.1136V24.0568C209.847 23.4886 209.629 23.053 209.193 22.75C208.758 22.447 208.199 22.2955 207.517 22.2955C206.769 22.2955 206.158 22.4612 205.685 22.7926C205.221 23.1146 204.941 23.6117 204.847 24.2841H197.631C197.725 22.9583 198.147 21.7367 198.895 20.6193C199.652 19.4924 200.756 18.5928 202.205 17.9205C203.653 17.2386 205.462 16.8977 207.631 16.8977C209.193 16.8977 210.595 17.0824 211.835 17.4517C213.076 17.8116 214.132 18.3182 215.003 18.9716C215.874 19.6155 216.537 20.3731 216.991 21.2443C217.455 22.1061 217.688 23.0436 217.688 24.0568V39H210.358V35.9318H210.188C209.752 36.7462 209.222 37.4044 208.597 37.9062C207.981 38.4081 207.276 38.7727 206.48 39C205.694 39.2273 204.828 39.3409 203.881 39.3409ZM206.438 34.3977C207.034 34.3977 207.593 34.2746 208.114 34.0284C208.644 33.7822 209.075 33.4271 209.406 32.9631C209.738 32.4991 209.903 31.9356 209.903 31.2727V29.4545C209.695 29.5398 209.473 29.6203 209.236 29.696C209.009 29.7718 208.762 29.8428 208.497 29.9091C208.241 29.9754 207.967 30.0369 207.673 30.0938C207.389 30.1506 207.091 30.2027 206.778 30.25C206.172 30.3447 205.675 30.5009 205.287 30.7188C204.908 30.9271 204.624 31.1875 204.435 31.5C204.255 31.803 204.165 32.1439 204.165 32.5227C204.165 33.1288 204.378 33.5928 204.804 33.9148C205.23 34.2367 205.775 34.3977 206.438 34.3977ZM221.434 47.1818V17.1818H229.218V20.9886H229.388C229.673 20.25 230.089 19.5729 230.638 18.9574C231.188 18.3324 231.87 17.8352 232.684 17.4659C233.498 17.0871 234.445 16.8977 235.525 16.8977C236.964 16.8977 238.333 17.2812 239.63 18.0483C240.937 18.8153 241.997 20.0227 242.812 21.6705C243.636 23.3182 244.048 25.4583 244.048 28.0909C244.048 30.6098 243.655 32.6979 242.869 34.3551C242.092 36.0123 241.05 37.2481 239.744 38.0625C238.446 38.8769 237.021 39.2841 235.468 39.2841C234.445 39.2841 233.531 39.1184 232.727 38.7869C231.931 38.446 231.249 37.9867 230.681 37.4091C230.122 36.822 229.692 36.1591 229.388 35.4205H229.275V47.1818H221.434ZM229.104 28.0909C229.104 29.1515 229.242 30.0701 229.516 30.8466C229.8 31.6136 230.198 32.2102 230.71 32.6364C231.23 33.053 231.851 33.2614 232.57 33.2614C233.29 33.2614 233.901 33.0578 234.403 32.6506C234.914 32.2339 235.302 31.642 235.567 30.875C235.842 30.0985 235.979 29.1705 235.979 28.0909C235.979 27.0114 235.842 26.0881 235.567 25.321C235.302 24.5445 234.914 23.9527 234.403 23.5455C233.901 23.1288 233.29 22.9205 232.57 22.9205C231.851 22.9205 231.23 23.1288 230.71 23.5455C230.198 23.9527 229.8 24.5445 229.516 25.321C229.242 26.0881 229.104 27.0114 229.104 28.0909ZM267.276 24.2841H260.06C260.022 23.839 259.866 23.4555 259.591 23.1335C259.316 22.8116 258.961 22.5653 258.526 22.3949C258.099 22.215 257.626 22.125 257.105 22.125C256.433 22.125 255.855 22.2481 255.372 22.4943C254.889 22.7405 254.652 23.0909 254.662 23.5455C254.652 23.8674 254.79 24.1657 255.074 24.4403C255.367 24.715 255.931 24.928 256.764 25.0795L261.196 25.875C263.431 26.2822 265.093 26.9687 266.182 27.9347C267.28 28.8911 267.834 30.1742 267.844 31.7841C267.834 33.3371 267.37 34.6866 266.452 35.8324C265.543 36.9687 264.297 37.8494 262.716 38.4744C261.144 39.09 259.349 39.3977 257.332 39.3977C253.999 39.3977 251.39 38.7159 249.506 37.3523C247.631 35.9886 246.584 34.1894 246.366 31.9545H254.151C254.255 32.6458 254.596 33.1809 255.173 33.5597C255.76 33.929 256.499 34.1136 257.389 34.1136C258.109 34.1136 258.701 33.9905 259.165 33.7443C259.638 33.4981 259.88 33.1477 259.889 32.6932C259.88 32.2765 259.671 31.9451 259.264 31.6989C258.866 31.4527 258.241 31.2538 257.389 31.1023L253.526 30.4205C251.3 30.0322 249.634 29.2936 248.526 28.2045C247.418 27.1155 246.868 25.714 246.878 24C246.868 22.4848 247.266 21.2017 248.071 20.1506C248.885 19.09 250.045 18.285 251.551 17.7358C253.066 17.1771 254.861 16.8977 256.935 16.8977C260.088 16.8977 262.574 17.5511 264.392 18.858C266.22 20.1648 267.181 21.9735 267.276 24.2841Z" fill="#6062C8"/>
<g clip-path="url(#clip0_43_109)">
<path d="M11.0215 8.93302C14.1472 12.9011 15.8158 17.7944 15.7553 22.8155V24.0141L16.7865 24.6416C18.119 25.4482 19.1127 26.6993 19.5866 28.1669C19.1705 27.8605 18.7352 27.5803 18.2833 27.3278L15.5333 25.7838L15.0391 28.9001C14.9963 29.1755 14.9389 29.4485 14.8672 29.718H7.16151C7.04692 29.3655 6.95382 29.0129 6.86789 28.6463L6.24484 25.8261L3.70968 27.2362C3.28615 27.473 2.87723 27.7344 2.48507 28.0188C2.96824 26.5682 3.94123 25.3242 5.24224 24.4935L6.22336 23.866V22.7521C6.24106 17.7513 7.92967 12.8952 11.0287 8.93302H11.0215ZM11.0287 6C10.868 6.00039 10.7128 6.05799 10.5918 6.16216L10.5274 6.21857C6.39778 10.7656 4.10466 16.6454 4.08208 22.745C2.32967 23.8643 1.03251 25.5543 0.417263 27.5197C-0.197979 29.485 -0.0921719 31.6007 0.716194 33.4971C1.56776 31.6455 2.99131 30.1058 4.7839 29.0975C4.96368 29.8642 5.2031 30.6161 5.50005 31.3467C5.53771 31.4871 5.62118 31.6114 5.73763 31.7006C5.85408 31.7898 5.99706 31.8388 6.14458 31.8402H16.0847C16.2852 31.8402 16.4857 31.6498 16.586 31.3537C16.8758 30.6592 17.0778 29.9322 17.1875 29.1892C18.9836 30.1932 20.4083 31.7342 21.2553 33.5887C22.1124 31.7017 22.2451 29.5727 21.6287 27.5967C21.0124 25.6206 19.6888 23.9319 17.9037 22.8437C17.9745 16.7082 15.6935 10.7718 11.5157 6.21857C11.4535 6.15008 11.3773 6.09524 11.2922 6.05759C11.2071 6.01993 11.1149 6.00031 11.0215 6H11.0287Z" fill="#4EA8DE"/>
<path d="M11.0216 22.1598C10.4715 22.1598 9.93376 21.9995 9.47611 21.699C9.01846 21.3986 8.6614 20.9715 8.44993 20.4716C8.23847 19.9716 8.18206 19.4213 8.28782 18.8898C8.39358 18.3584 8.65678 17.8697 9.04423 17.4853C9.43169 17.1009 9.92606 16.838 10.465 16.7298C11.004 16.6216 11.5634 16.6729 12.0728 16.8773C12.5822 17.0816 13.0188 17.4298 13.3275 17.8781C13.6361 18.3263 13.8031 18.8545 13.8074 19.396V19.396C13.8159 19.7469 13.7542 20.0961 13.6256 20.4235C13.4971 20.751 13.3043 21.0503 13.0582 21.3043C12.8121 21.5583 12.5176 21.7622 12.1915 21.9041C11.8654 22.0461 11.5141 22.1234 11.1576 22.1316C11.1126 22.1387 11.0666 22.1387 11.0216 22.1316V22.1598Z" fill="#4EA8DE"/>
<path d="M14.8959 33.5958C14.7167 33.5901 14.5382 33.6198 14.3708 33.683C14.2034 33.7462 14.0505 33.8416 13.9211 33.9638C13.7917 34.086 13.6884 34.2323 13.6172 34.3943C13.546 34.5563 13.5084 34.7307 13.5066 34.9072V39.067C13.5066 39.4297 13.653 39.7776 13.9135 40.0342C14.1741 40.2907 14.5274 40.4348 14.8959 40.4348C15.2644 40.4348 15.6178 40.2907 15.8783 40.0342C16.1389 39.7776 16.2852 39.4297 16.2852 39.067V34.9636C16.291 34.7877 16.2611 34.6126 16.1973 34.4482C16.1336 34.2839 16.0372 34.1337 15.9139 34.0064C15.7906 33.879 15.6428 33.7772 15.4791 33.7067C15.3154 33.6362 15.139 33.5985 14.9604 33.5958H14.8959Z" fill="#5E60CE"/>
<path d="M7.16154 33.5958C6.97931 33.5863 6.797 33.613 6.62546 33.6743C6.45392 33.7356 6.29665 33.8302 6.16302 33.9526C6.02939 34.0749 5.92213 34.2225 5.84761 34.3865C5.77309 34.5505 5.73284 34.7275 5.72925 34.9072V39.067C5.72925 39.4297 5.87562 39.7777 6.13617 40.0342C6.39672 40.2907 6.7501 40.4348 7.11857 40.4348C7.48704 40.4348 7.84042 40.2907 8.10097 40.0342C8.36152 39.7777 8.50789 39.4297 8.50789 39.067V34.9636C8.51362 34.7877 8.48373 34.6126 8.41998 34.4482C8.35623 34.2839 8.25989 34.1337 8.13658 34.0064C8.01326 33.879 7.86544 33.7772 7.70173 33.7067C7.53802 33.6362 7.36169 33.5985 7.18302 33.5958H7.16154Z" fill="#5E60CE"/>
<path d="M10.9213 33.5958C10.7426 33.592 10.5649 33.623 10.3984 33.6869C10.2318 33.7507 10.0797 33.8463 9.95068 33.9681C9.82167 34.0899 9.71828 34.2355 9.64644 34.3966C9.5746 34.5577 9.5357 34.7312 9.53198 34.9072V40.6392C9.53198 41.002 9.67836 41.3499 9.93891 41.6064C10.1995 41.8629 10.5528 42.007 10.9213 42.007C11.2898 42.007 11.6432 41.8629 11.9037 41.6064C12.1643 41.3499 12.3106 41.002 12.3106 40.6392V34.9988C12.3164 34.823 12.2865 34.6478 12.2227 34.4835C12.159 34.3191 12.0626 34.1689 11.9393 34.0416C11.816 33.9143 11.6682 33.8124 11.5045 33.7419C11.3408 33.6714 11.1644 33.6337 10.9858 33.631L10.9213 33.5958Z" fill="#5E60CE"/>
</g>
<defs>
<clipPath id="clip0_43_109">
<rect width="22" height="36" fill="white" transform="translate(0 6)"/>
</clipPath>
</defs>
</svg>
