<svg width="55" height="55" viewBox="0 0 55 55" fill="none" xmlns="http://www.w3.org/2000/svg">
<g clip-path="url(#clip0_19415_144)">
<path d="M10.3124 27.5001C13.4765 27.5001 16.0416 24.935 16.0416 21.7709C16.0416 18.6068 13.4765 16.0417 10.3124 16.0417C7.14829 16.0417 4.58325 18.6068 4.58325 21.7709C4.58325 24.935 7.14829 27.5001 10.3124 27.5001Z" fill="#322153"/>
<path d="M20.6249 18.3333C23.789 18.3333 26.3541 15.7683 26.3541 12.6042C26.3541 9.44004 23.789 6.875 20.6249 6.875C17.4608 6.875 14.8958 9.44004 14.8958 12.6042C14.8958 15.7683 17.4608 18.3333 20.6249 18.3333Z" fill="#322153"/>
<path d="M34.3749 18.3333C37.5391 18.3333 40.1041 15.7683 40.1041 12.6042C40.1041 9.44004 37.5391 6.875 34.3749 6.875C31.2108 6.875 28.6458 9.44004 28.6458 12.6042C28.6458 15.7683 31.2108 18.3333 34.3749 18.3333Z" fill="#322153"/>
<path d="M44.6874 27.5001C47.8516 27.5001 50.4166 24.935 50.4166 21.7709C50.4166 18.6068 47.8516 16.0417 44.6874 16.0417C41.5233 16.0417 38.9583 18.6068 38.9583 21.7709C38.9583 24.935 41.5233 27.5001 44.6874 27.5001Z" fill="#322153"/>
<path d="M39.7373 34.0542C37.7436 31.7167 36.0707 29.7229 34.054 27.3854C32.9998 26.1479 31.6477 24.9104 30.0436 24.3604C29.7915 24.2688 29.5394 24.2 29.2873 24.1542C28.7144 24.0625 28.0957 24.0625 27.4998 24.0625C26.904 24.0625 26.2852 24.0625 25.6894 24.1771C25.4373 24.2229 25.1852 24.2917 24.9332 24.3833C23.329 24.9333 21.9998 26.1708 20.9227 27.4083C18.929 29.7458 17.2561 31.7396 15.2394 34.0771C12.2373 37.0792 8.54774 40.4021 9.23524 45.0542C9.89982 47.3917 11.5727 49.7062 14.5748 50.3708C16.2477 50.7146 21.5873 49.3625 27.2707 49.3625H27.6832C33.3665 49.3625 38.7061 50.6917 40.379 50.3708C43.3811 49.7062 45.054 47.3687 45.7186 45.0542C46.429 40.3792 42.7394 37.0562 39.7373 34.0542Z" fill="#322153"/>
</g>
<defs>
<clipPath id="clip0_19415_144">
<rect width="55" height="55" fill="white"/>
</clipPath>
</defs>
</svg>
