<svg width="55" height="55" viewBox="0 0 55 55" fill="none" xmlns="http://www.w3.org/2000/svg">
<g clip-path="url(#clip0_19415_155)">
<path d="M16.0417 41.2499C13.5209 41.2499 11.4813 43.3124 11.4813 45.8333C11.4813 48.3541 13.5209 50.4166 16.0417 50.4166C18.5626 50.4166 20.6251 48.3541 20.6251 45.8333C20.6251 43.3124 18.5626 41.2499 16.0417 41.2499ZM2.29175 4.58325V9.16659H6.87508L15.1251 26.5603L12.0313 32.1749C11.6647 32.8166 11.4584 33.5728 11.4584 34.3749C11.4584 36.8958 13.5209 38.9583 16.0417 38.9583H43.5417V34.3749H17.0042C16.6834 34.3749 16.4313 34.1228 16.4313 33.802L16.5001 33.527L18.5626 29.7916H35.6355C37.3542 29.7916 38.8667 28.852 39.6459 27.4312L47.8501 12.5583C48.0334 12.2374 48.1251 11.8478 48.1251 11.4583C48.1251 10.1978 47.0938 9.16659 45.8334 9.16659H11.9397L9.7855 4.58325H2.29175ZM38.9584 41.2499C36.4376 41.2499 34.398 43.3124 34.398 45.8333C34.398 48.3541 36.4376 50.4166 38.9584 50.4166C41.4792 50.4166 43.5417 48.3541 43.5417 45.8333C43.5417 43.3124 41.4792 41.2499 38.9584 41.2499Z" fill="#322153"/>
</g>
<defs>
<clipPath id="clip0_19415_155">
<rect width="55" height="55" fill="white"/>
</clipPath>
</defs>
</svg>
