<svg width="55" height="55" viewBox="0 0 55 55" fill="none" xmlns="http://www.w3.org/2000/svg">
<g clip-path="url(#clip0_19415_169)">
<path d="M39.4397 20.625L29.4022 5.59165C28.9667 4.94998 28.2334 4.62915 27.5001 4.62915C26.7667 4.62915 26.0334 4.94998 25.598 5.61457L15.5605 20.625H4.58341C3.323 20.625 2.29175 21.6562 2.29175 22.9167C2.29175 23.1229 2.31466 23.3292 2.38341 23.5354L8.20425 44.7792C8.73133 46.7042 10.4959 48.125 12.6042 48.125H42.3959C44.5042 48.125 46.2688 46.7042 46.8188 44.7792L52.6397 23.5354L52.7084 22.9167C52.7084 21.6562 51.6772 20.625 50.4167 20.625H39.4397ZM20.6251 20.625L27.5001 10.5417L34.3751 20.625H20.6251ZM27.5001 38.9583C24.9792 38.9583 22.9167 36.8958 22.9167 34.375C22.9167 31.8542 24.9792 29.7917 27.5001 29.7917C30.0209 29.7917 32.0834 31.8542 32.0834 34.375C32.0834 36.8958 30.0209 38.9583 27.5001 38.9583Z" fill="#322153"/>
</g>
<defs>
<clipPath id="clip0_19415_169">
<rect width="55" height="55" fill="white"/>
</clipPath>
</defs>
</svg>
